<svg xmlns="http://www.w3.org/2000/svg" width="1200" height="500" viewBox="0 0 1200 500" role="img" aria-labelledby="title desc">
  <title id="title">Population variance extracted from authentic matched HHAR standing and walking accelerometer x-axis windows</title>
  <desc id="desc">Two five-second smartwatch accelerometer x-axis input strips from one HHAR user and watch are mapped to exact population-variance targets.</desc>
  
  <style>
    .kicker{font:700 19px 'JetBrains Mono','SFMono-Regular',monospace;letter-spacing:1.6px;fill:#68747D}
    .stageDetail{font:600 17px 'Work Sans','Avenir Next',Arial,sans-serif;fill:#40505D}
    .section{font:700 21px 'Work Sans','Avenir Next',Arial,sans-serif;fill:#17212B}
    .label{font:700 18px 'Work Sans','Avenir Next',Arial,sans-serif;fill:#17212B}
    .body{font:500 17px 'Work Sans','Avenir Next',Arial,sans-serif;fill:#40505D}
    .small{font:500 14px 'Work Sans','Avenir Next',Arial,sans-serif;fill:#68747D}
    .mono{font:600 15px 'JetBrains Mono','SFMono-Regular',monospace;fill:#40505D}
    .formula{font:600 21px 'JetBrains Mono','SFMono-Regular',monospace;fill:#17212B}
    .acfFormula{font:600 18px 'JetBrains Mono','SFMono-Regular',monospace;fill:#17212B}
    .value{font:800 37px 'Work Sans','Avenir Next',Arial,sans-serif;fill:#17212B;letter-spacing:-.5px}
    .metric{font:700 20px 'JetBrains Mono','SFMono-Regular',monospace;fill:#17212B}
    .axis{font:600 12px 'JetBrains Mono','SFMono-Regular',monospace;fill:#68747D}
    .card{fill:#FFFDF9;stroke:#D6DCDE;stroke-width:1.4}
    .grid{fill:none;stroke:#E8ECEB;stroke-width:1}
    .axisline{fill:none;stroke:#D6DCDE;stroke-width:1.2}
    .stand{fill:none;stroke:#26796F;stroke-width:3;stroke-linecap:round;stroke-linejoin:round}
    .walk{fill:none;stroke:#A63D32;stroke-width:3;stroke-linecap:round;stroke-linejoin:round}
  </style>
  <defs>
    <marker id="arrow" viewBox="0 0 10 10" refX="9" refY="5" markerWidth="7" markerHeight="7" orient="auto-start-reverse">
      <path d="M 0 0 L 10 5 L 0 10 z" fill="#285F8F"/>
    </marker>
  </defs>
  <rect width="1200" height="500" fill="#F7F4EE"/>
  <text x="35" y="29" class="kicker" text-anchor="start" >01 · INPUT</text>
<text x="250" y="29" class="stageDetail" text-anchor="start" >AUTHENTIC HHAR · 5 S ACCELEROMETER X</text>
<path d="M608,25 H672" stroke="#285F8F" stroke-width="2.5" marker-end="url(#arrow)"/>
<text x="700" y="29" class="kicker" text-anchor="start" >02 · EXTRACTED TARGET</text>
  <text x="700" y="57" class="formula" text-anchor="start" >Var(aₓ) = N⁻¹ Σᵢ(aₓ,ᵢ − μ)²    ·    N = 503</text>
  
    <rect x="35" y="65" width="560" height="160" rx="17" class="card"/>
    <rect x="35" y="65" width="7" height="160" rx="3.5" fill="#26796F"/>
    <text x="58" y="103" class="label" text-anchor="start" >STANDING</text>
    <text x="58" y="128" class="small" text-anchor="start" >aₓ · 503 samples</text>
    <text x="58" y="159" class="mono" text-anchor="start" >μ = -9.115</text>
    <text x="58" y="184" class="mono" text-anchor="start" >σ = 0.097</text>
    <rect x="183" y="121.41" width="385" height="1.40" fill="#26796F" fill-opacity=".12"/>
    <path d="M183,183.00 H568" class="grid"/><text x="175" y="187" class="axis" text-anchor="end" >-18</text>
<path d="M183,135.00 H568" class="grid"/><text x="175" y="139" class="axis" text-anchor="end" >-11</text>
<path d="M183,87.00 H568" class="grid"/><text x="175" y="91" class="axis" text-anchor="end" >-4</text>
    <path d="M183.00,87 V183" class="grid"/><text x="183.00" y="201" class="axis" text-anchor="middle" >0</text>
<path d="M375.50,87 V183" class="grid"/><text x="375.50" y="201" class="axis" text-anchor="middle" >2.5</text>
<path d="M568.00,87 V183" class="grid"/><text x="568.00" y="201" class="axis" text-anchor="middle" >5 s</text>
    <path d="M183,122.07 H568" stroke="#26796F" stroke-width="1.3" stroke-dasharray="5 5" opacity=".72"/>
    <path d="M183.00,121.95 L183.76,122.32 L184.56,122.54 L185.29,122.45 L186.08,122.20 L186.83,121.46 L187.60,121.07 L188.36,121.22 L189.13,121.53 L189.89,121.80 L190.67,122.02 L191.42,122.13 L192.19,122.09 L192.95,122.17 L193.72,122.17 L194.48,122.08 L195.27,121.97 L196.02,122.01 L196.79,122.48 L197.55,122.61 L198.32,122.59 L199.09,122.08 L199.86,121.97 L200.61,122.13 L201.38,122.46 L202.14,122.46 L202.92,122.48 L203.68,122.40 L204.46,122.25 L205.21,122.32 L205.98,122.38 L206.74,122.42 L207.51,122.56 L208.27,122.53 L209.05,122.39 L209.80,122.35 L210.58,122.19 L211.34,122.09 L212.11,122.27 L212.87,122.64 L213.65,122.60 L214.40,122.47 L215.17,122.25 L215.93,122.15 L216.70,122.38 L217.46,122.55 L218.24,122.69 L218.99,122.29 L219.77,121.92 L220.53,121.90 L221.30,122.06 L222.06,122.10 L222.84,122.22 L223.59,122.27 L224.36,121.95 L225.12,121.91 L225.89,121.95 L226.65,122.20 L227.44,122.36 L228.18,122.41 L228.96,122.19 L229.72,121.91 L230.49,121.69 L231.25,121.56 L232.03,121.75 L232.78,121.63 L233.55,121.97 L234.31,122.29 L235.09,122.33 L235.84,122.21 L236.63,121.89 L237.38,121.87 L238.15,121.97 L238.91,121.99 L239.68,121.92 L240.44,121.77 L241.22,121.99 L241.97,121.98 L242.74,122.12 L243.50,121.85 L244.28,121.83 L245.04,121.71 L245.82,121.99 L246.57,122.11 L247.34,122.14 L248.10,122.27 L248.87,122.35 L249.63,122.06 L250.42,122.00 L251.16,121.91 L251.94,121.56 L252.70,121.58 L253.47,121.79 L254.23,122.01 L255.01,122.27 L255.76,122.34 L256.53,122.46 L257.29,122.29 L258.06,122.15 L258.82,121.99 L259.61,121.73 L260.36,121.85 L261.16,122.02 L261.89,122.16 L262.66,122.12 L263.42,121.87 L264.20,121.60 L264.95,121.85 L265.72,121.99 L266.48,121.98 L267.26,122.15 L268.01,122.20 L268.80,122.04 L269.55,122.21 L270.32,122.24 L271.08,122.24 L271.85,122.22 L272.61,122.01 L273.39,121.76 L274.14,121.76 L274.92,121.64 L275.68,121.56 L276.45,121.60 L277.21,121.63 L277.99,121.95 L278.74,121.88 L279.51,122.05 L280.27,122.09 L281.04,122.06 L281.80,122.22 L282.59,122.22 L283.34,121.97 L284.11,121.60 L284.87,121.42 L285.65,121.48 L286.40,121.64 L287.19,121.81 L287.93,121.86 L288.70,121.62 L289.46,121.59 L290.23,121.65 L290.99,121.77 L291.78,121.96 L292.53,122.22 L293.30,122.42 L294.06,122.26 L294.83,121.88 L295.59,121.57 L296.37,121.36 L297.12,121.33 L297.89,121.69 L298.65,122.02 L299.43,122.38 L300.18,122.67 L300.97,123.00 L301.72,123.18 L302.49,122.82 L303.25,122.44 L304.02,122.26 L304.78,122.18 L305.56,122.23 L306.31,122.76 L307.08,123.09 L307.84,123.17 L308.62,122.81 L309.38,122.34 L310.16,121.92 L310.91,122.09 L311.68,122.29 L312.44,122.72 L313.21,122.66 L313.97,122.44 L314.75,122.28 L315.50,122.10 L316.28,122.19 L317.03,122.39 L317.81,122.70 L318.57,122.77 L319.35,122.48 L320.10,122.16 L320.87,122.18 L321.63,122.06 L322.40,122.09 L323.16,122.15 L323.95,121.87 L324.70,121.50 L325.47,121.28 L326.23,121.03 L327.00,120.80 L327.76,120.24 L328.54,120.47 L329.29,120.74 L330.06,120.62 L330.82,120.53 L331.60,120.59 L332.35,120.70 L333.14,120.93 L333.89,121.10 L334.66,121.44 L335.42,121.57 L336.19,121.54 L336.95,121.63 L337.76,121.73 L338.48,121.83 L339.26,121.79 L340.01,121.97 L340.79,122.18 L341.55,122.46 L342.33,122.23 L343.08,121.84 L343.85,121.58 L344.62,121.58 L345.38,121.18 L346.14,121.10 L346.93,121.24 L347.68,121.49 L348.45,121.87 L349.21,121.99 L349.98,121.99 L350.74,121.90 L351.53,121.99 L352.27,122.05 L353.04,122.42 L353.80,122.66 L354.57,122.89 L355.33,122.89 L356.12,122.66 L356.87,122.47 L357.64,122.92 L358.40,123.05 L359.17,123.25 L359.93,123.15 L360.72,123.07 L361.46,122.68 L362.23,122.47 L363.00,122.26 L363.77,122.15 L364.53,122.19 L365.31,122.54 L366.06,122.56 L366.83,122.54 L367.59,122.69 L368.36,122.63 L369.12,122.54 L369.90,122.64 L370.65,122.73 L371.43,122.59 L372.18,122.38 L372.96,122.31 L373.72,122.32 L374.50,122.43 L375.25,122.15 L376.02,122.00 L376.78,122.24 L377.55,122.09 L378.31,121.97 L379.10,121.80 L379.84,121.62 L380.62,121.49 L381.38,121.53 L382.15,121.63 L382.91,121.17 L383.69,121.20 L384.44,121.00 L385.21,120.77 L385.97,121.39 L386.74,121.63 L387.50,121.99 L388.29,121.67 L389.04,121.40 L389.81,121.47 L390.57,121.52 L391.34,121.66 L392.10,121.74 L392.88,121.73 L393.63,121.59 L394.40,121.69 L395.16,121.70 L395.94,121.54 L396.70,121.67 L397.48,121.44 L398.23,121.10 L399.00,121.22 L399.76,121.53 L400.53,121.46 L401.29,121.47 L402.08,121.76 L402.82,121.84 L403.60,121.88 L404.36,122.24 L405.13,122.50 L405.89,122.75 L406.67,123.00 L407.42,122.88 L408.19,122.68 L408.95,122.53 L409.72,122.46 L410.48,122.34 L411.27,122.18 L412.02,122.35 L412.79,122.34 L413.55,122.14 L414.35,122.44 L415.08,122.43 L415.86,122.29 L416.61,122.37 L417.38,122.44 L418.15,122.81 L418.95,122.85 L419.71,122.77 L420.49,122.83 L421.25,122.37 L422.02,122.15 L422.76,122.15 L423.53,122.18 L424.30,122.50 L425.08,122.80 L425.84,122.50 L426.60,122.11 L427.34,121.57 L428.11,121.40 L428.87,121.49 L429.66,121.68 L430.41,121.75 L431.18,121.77 L431.93,122.28 L432.70,122.28 L433.46,122.72 L434.24,122.66 L434.99,122.37 L435.77,122.25 L436.52,122.04 L437.30,122.08 L438.06,122.06 L438.84,122.29 L439.59,121.88 L440.36,121.83 L441.12,121.57 L441.89,121.69 L442.65,121.97 L443.44,122.42 L444.18,122.69 L444.96,122.33 L445.72,121.82 L446.49,121.33 L447.25,121.83 L448.03,121.91 L448.78,121.56 L449.55,121.82 L450.31,121.85 L451.08,122.00 L451.84,122.16 L452.63,122.20 L453.38,122.30 L454.15,121.92 L454.91,121.82 L455.68,121.72 L456.44,121.83 L457.22,122.17 L457.97,122.40 L458.74,122.18 L459.50,121.82 L460.28,121.64 L461.03,122.04 L461.82,122.22 L462.57,121.99 L463.34,122.11 L464.10,121.76 L464.87,121.53 L465.64,121.64 L466.42,122.43 L467.17,123.03 L467.94,123.04 L468.70,122.67 L469.47,122.20 L470.23,122.13 L471.01,122.41 L471.76,122.32 L472.53,122.26 L473.29,122.54 L474.07,122.54 L474.83,122.06 L475.61,121.66 L476.36,121.95 L477.13,121.88 L477.89,122.14 L478.68,122.34 L479.43,122.44 L480.21,122.37 L480.95,122.52 L481.73,122.59 L482.49,122.48 L483.26,122.44 L484.02,122.45 L484.80,122.08 L485.55,122.13 L486.32,122.11 L487.08,121.96 L487.85,122.09 L488.61,121.81 L489.40,121.81 L490.17,121.55 L490.95,121.38 L491.68,121.17 L492.45,121.31 L493.21,121.77 L494.00,121.79 L494.75,121.79 L495.52,121.92 L496.27,122.13 L497.06,122.07 L497.80,122.77 L498.60,121.82 L499.34,121.56 L500.11,121.85 L500.87,122.29 L501.64,122.12 L502.41,121.80 L503.18,122.33 L503.94,122.49 L504.72,122.66 L505.46,122.90 L506.24,122.17 L507.00,122.29 L507.78,122.80 L508.53,123.38 L509.30,123.26 L510.06,122.32 L510.83,121.51 L511.59,121.56 L512.37,122.21 L513.12,122.99 L513.90,123.50 L514.66,123.71 L515.43,123.23 L516.19,122.98 L516.98,122.83 L517.72,122.90 L518.49,122.62 L519.25,122.27 L520.02,122.18 L520.78,122.15 L521.57,122.29 L522.31,122.26 L523.09,122.33 L523.85,122.21 L524.62,122.09 L525.38,122.07 L526.16,121.80 L526.91,122.02 L527.68,122.18 L528.44,122.43 L529.22,122.78 L529.97,123.01 L530.78,123.16 L531.53,122.91 L532.30,122.74 L533.06,122.56 L533.83,122.50 L534.59,122.29 L535.37,122.34 L536.11,122.34 L536.88,122.18 L537.63,121.92 L538.41,121.87 L539.17,121.60 L539.95,121.39 L540.70,121.15 L541.47,121.02 L542.23,120.70 L543.00,120.80 L543.76,120.95 L544.54,120.87 L545.29,120.85 L546.07,120.75 L546.82,120.57 L547.60,120.51 L548.36,120.92 L549.14,121.33 L549.89,121.71 L550.66,121.82 L551.42,121.81 L552.19,121.39 L552.95,122.85 L553.73,124.10 L554.48,124.31 L555.26,126.05 L556.02,125.47 L556.79,124.24 L557.55,124.00 L558.33,124.21 L559.08,124.09 L559.85,123.67 L560.61,122.76 L561.38,121.33 L562.14,119.88 L562.93,119.28 L563.69,119.75 L564.46,120.62 L565.21,121.35 L565.98,120.96 L566.75,120.22 L567.56,119.61" class="stand"/>
    <text x="565" y="103" class="axis" text-anchor="end" >shading: μ ± σ</text>
  
    <rect x="35" y="255" width="560" height="160" rx="17" class="card"/>
    <rect x="35" y="255" width="7" height="160" rx="3.5" fill="#A63D32"/>
    <text x="58" y="293" class="label" text-anchor="start" >WALKING</text>
    <text x="58" y="318" class="small" text-anchor="start" >aₓ · 503 samples</text>
    <text x="58" y="349" class="mono" text-anchor="start" >μ = -9.885</text>
    <text x="58" y="374" class="mono" text-anchor="start" >σ = 3.04</text>
    <rect x="183" y="296.54" width="385" height="41.63" fill="#A63D32" fill-opacity=".12"/>
    <path d="M183,373.00 H568" class="grid"/><text x="175" y="377" class="axis" text-anchor="end" >-18</text>
<path d="M183,325.00 H568" class="grid"/><text x="175" y="329" class="axis" text-anchor="end" >-11</text>
<path d="M183,277.00 H568" class="grid"/><text x="175" y="281" class="axis" text-anchor="end" >-4</text>
    <path d="M183.00,277 V373" class="grid"/><text x="183.00" y="391" class="axis" text-anchor="middle" >0</text>
<path d="M375.50,277 V373" class="grid"/><text x="375.50" y="391" class="axis" text-anchor="middle" >2.5</text>
<path d="M568.00,277 V373" class="grid"/><text x="568.00" y="391" class="axis" text-anchor="middle" >5 s</text>
    <path d="M183,317.36 H568" stroke="#A63D32" stroke-width="1.3" stroke-dasharray="5 5" opacity=".72"/>
    <path d="M183.00,300.92 L183.75,305.06 L184.53,309.75 L185.29,314.18 L186.06,317.53 L186.82,319.10 L187.60,318.77 L188.35,316.70 L189.13,314.31 L189.88,313.86 L190.66,317.52 L191.42,325.22 L192.19,334.39 L192.95,342.53 L193.73,345.67 L194.48,342.69 L195.26,335.27 L196.01,328.78 L196.79,325.64 L197.54,324.97 L198.32,327.44 L199.07,333.26 L199.85,340.24 L200.60,346.06 L201.39,349.18 L202.14,350.20 L202.92,347.67 L203.69,341.55 L204.46,334.24 L205.22,326.55 L205.99,318.42 L206.73,311.03 L207.51,305.00 L208.26,300.17 L209.04,295.84 L209.80,292.08 L210.57,288.98 L211.33,287.15 L212.11,286.99 L212.86,288.11 L213.64,290.20 L214.39,293.11 L215.17,296.66 L215.93,299.67 L216.70,301.80 L217.46,302.58 L218.23,302.74 L218.99,302.63 L219.76,302.71 L220.52,303.61 L221.30,305.32 L222.05,307.76 L222.83,310.27 L223.58,313.54 L224.36,317.37 L225.12,321.94 L225.89,326.61 L226.65,330.72 L227.42,333.09 L228.18,333.57 L228.96,335.54 L229.71,342.35 L230.50,354.80 L231.24,365.57 L232.02,365.58 L232.78,355.89 L233.55,343.03 L234.31,333.16 L235.08,329.34 L235.84,331.63 L236.62,338.88 L237.37,348.31 L238.15,354.70 L238.91,355.46 L239.70,351.29 L240.45,345.23 L241.22,338.58 L241.98,331.81 L242.76,324.57 L243.51,316.98 L244.29,309.78 L245.03,303.47 L245.81,298.08 L246.56,293.36 L247.37,289.91 L248.10,287.88 L248.87,286.82 L249.63,286.69 L250.40,286.79 L251.16,287.28 L251.94,288.11 L252.69,289.05 L253.47,290.53 L254.23,292.09 L255.00,293.69 L255.76,295.46 L256.53,297.12 L257.29,298.59 L258.06,300.03 L258.82,301.18 L259.60,301.86 L260.35,302.98 L261.13,304.22 L261.88,305.56 L262.66,306.97 L263.43,308.51 L264.19,309.57 L264.95,309.84 L265.73,309.11 L266.48,308.07 L267.26,307.91 L268.02,310.73 L268.79,317.70 L269.54,329.04 L270.33,343.09 L271.07,352.87 L271.85,354.08 L272.61,348.58 L273.38,339.89 L274.14,332.10 L274.91,328.26 L275.67,328.16 L276.45,331.03 L277.20,336.02 L277.98,336.02 L278.73,341.41 L279.51,345.70 L280.26,346.78 L281.04,344.64 L281.80,339.73 L282.57,333.21 L283.33,325.17 L284.11,317.41 L284.86,309.86 L285.64,303.29 L286.39,298.04 L287.17,293.54 L287.93,290.21 L288.70,288.20 L289.46,287.56 L290.23,287.55 L290.99,287.98 L291.77,289.16 L292.52,291.38 L293.30,294.24 L294.05,297.42 L294.83,299.95 L295.58,302.10 L296.36,304.04 L297.12,305.57 L297.89,305.75 L298.65,305.98 L299.42,307.08 L300.18,308.79 L300.96,311.33 L301.71,314.85 L302.49,319.31 L303.24,324.97 L304.02,331.58 L304.77,337.75 L305.55,340.69 L306.31,339.23 L307.09,334.78 L307.85,332.04 L308.64,334.85 L309.38,343.05 L310.16,352.43 L310.91,354.90 L311.68,348.90 L312.43,339.58 L313.21,332.26 L313.97,329.24 L314.74,331.42 L315.50,337.28 L316.28,343.84 L317.03,348.77 L317.81,350.49 L318.56,348.52 L319.34,343.74 L320.09,337.79 L320.87,331.11 L321.63,324.41 L322.40,318.29 L323.16,312.18 L323.96,306.13 L324.69,300.82 L325.47,296.41 L326.22,292.70 L327.00,290.12 L327.75,288.44 L328.53,287.57 L329.28,287.02 L330.06,286.84 L330.82,286.61 L331.60,286.85 L332.35,288.00 L333.13,290.12 L333.88,292.19 L334.66,294.05 L335.41,294.90 L336.19,295.77 L336.95,295.91 L337.72,296.00 L338.48,296.21 L339.25,297.73 L340.01,300.09 L340.79,302.68 L341.54,305.10 L342.32,307.04 L343.07,308.57 L343.85,308.62 L344.60,307.53 L345.38,306.01 L346.14,305.20 L346.91,306.00 L347.67,310.16 L348.46,318.53 L349.22,330.59 L350.00,343.11 L350.76,348.93 L351.52,348.64 L352.27,344.83 L353.04,338.31 L353.80,332.15 L354.57,328.22 L355.33,327.71 L356.11,330.17 L356.86,334.34 L357.64,338.43 L358.39,340.86 L359.17,340.11 L359.92,336.68 L360.70,331.70 L361.46,326.38 L362.23,320.42 L362.99,313.78 L363.76,307.76 L364.52,302.35 L365.30,296.88 L366.05,292.41 L366.83,288.63 L367.58,285.76 L368.36,284.08 L369.13,283.51 L369.90,284.66 L370.65,286.94 L371.43,289.95 L372.18,292.88 L372.96,295.43 L373.71,297.58 L374.49,298.85 L375.24,299.17 L376.02,299.48 L376.78,300.67 L377.55,302.75 L378.31,305.36 L379.09,308.65 L379.84,312.59 L380.62,317.13 L381.37,321.95 L382.15,327.27 L382.90,331.92 L383.68,335.17 L384.44,336.17 L385.21,333.97 L385.97,329.30 L386.74,325.69 L387.50,327.46 L388.28,334.08 L389.03,341.73 L389.81,346.12 L390.56,344.92 L391.34,338.02 L392.09,330.14 L392.87,325.88 L393.63,326.58 L394.40,331.51 L395.16,337.79 L395.93,343.52 L396.69,348.47 L397.47,350.44 L398.22,348.59 L399.00,343.97 L399.75,337.22 L400.56,328.67 L401.29,319.47 L402.06,311.34 L402.82,304.52 L403.59,299.02 L404.35,294.83 L405.13,291.55 L405.88,289.09 L406.66,287.37 L407.41,286.42 L408.20,286.06 L408.96,286.04 L409.72,286.09 L410.50,286.08 L411.27,286.70 L412.01,287.54 L412.79,288.47 L413.55,289.47 L414.32,290.86 L415.08,292.40 L415.86,294.73 L416.61,297.57 L417.38,300.63 L418.14,300.63 L418.92,303.39 L419.67,306.28 L420.45,308.40 L421.21,309.70 L421.98,310.73 L422.75,311.63 L423.52,312.02 L424.27,312.09 L425.04,311.49 L425.80,310.12 L426.58,308.95 L427.33,309.48 L428.11,313.55 L428.86,321.54 L429.65,332.15 L430.39,340.22 L431.17,341.48 L431.93,336.99 L432.70,330.34 L433.46,324.96 L434.24,322.53 L434.99,323.25 L435.77,327.69 L436.52,334.16 L437.30,339.65 L438.05,342.83 L438.83,343.57 L439.58,341.31 L440.36,336.76 L441.12,331.24 L441.89,325.64 L442.65,320.09 L443.43,314.52 L444.18,309.34 L444.98,304.27 L445.71,299.96 L446.50,296.61 L447.26,293.64 L448.04,291.85 L448.80,291.30 L449.58,291.46 L450.33,292.21 L451.11,293.66 L451.86,295.31 L452.64,297.57 L453.39,300.70 L454.16,303.76 L454.93,305.78 L455.70,306.97 L456.47,307.82 L457.23,308.41 L457.99,309.29 L458.77,310.75 L459.52,313.28 L460.30,317.03 L461.06,321.60 L461.83,327.06 L462.59,332.23 L463.36,336.14 L464.12,337.14 L464.89,335.11 L465.66,331.19 L466.43,329.57 L467.16,334.01 L467.95,342.67 L468.69,351.95 L469.47,355.79 L470.23,350.67 L471.00,339.57 L471.75,328.88 L472.53,322.43 L473.28,321.94 L474.06,327.98 L474.81,337.82 L475.59,347.26 L476.35,353.34 L477.15,354.52 L477.88,351.20 L478.65,344.66 L479.41,336.99 L480.19,329.21 L480.94,322.07 L481.72,315.82 L482.47,310.04 L483.26,304.72 L484.11,300.40 L484.78,296.72 L485.54,293.91 L486.31,292.08 L487.07,291.20 L487.85,290.61 L488.60,290.26 L489.38,290.41 L490.13,291.11 L490.91,292.20 L491.66,293.73 L492.44,295.63 L493.20,296.91 L493.97,298.03 L494.73,298.64 L495.51,299.37 L496.26,300.42 L497.04,301.54 L497.79,302.90 L498.57,305.14 L499.32,307.70 L500.10,310.46 L500.85,312.99 L501.63,315.28 L502.39,315.99 L503.16,314.80 L503.92,312.09 L504.70,308.73 L505.45,307.77 L506.23,311.79 L506.98,320.41 L507.76,331.60 L508.51,342.51 L509.30,348.63 L510.05,347.60 L510.82,340.75 L511.58,333.24 L512.35,328.51 L513.11,326.64 L513.89,328.10 L514.64,333.70 L515.42,341.06 L516.17,347.62 L516.95,351.42 L517.71,350.74 L518.48,345.51 L519.24,338.01 L520.01,330.69 L520.77,323.77 L521.55,317.61 L522.30,311.90 L523.08,306.47 L523.83,301.75 L524.61,298.27 L525.36,295.72 L526.14,294.44 L526.90,294.22 L527.67,294.76 L528.43,295.33 L529.21,295.84 L529.97,296.65 L530.75,297.73 L531.50,299.31 L532.28,300.97 L533.03,302.79 L533.81,304.87 L534.57,305.90 L535.34,306.40 L536.09,307.31 L536.87,309.53 L537.62,312.62 L538.40,316.20 L539.15,320.58 L539.93,325.68 L540.68,331.17 L541.46,337.11 L542.22,342.47 L542.99,344.47 L543.75,342.00 L544.53,336.65 L545.28,332.65 L546.07,335.08 L546.81,343.42 L547.59,353.48 L548.34,359.40 L549.12,354.90 L549.88,342.55 L550.65,330.94 L551.41,325.42 L552.18,327.85 L552.94,337.86 L553.74,351.13 L554.48,362.20 L555.25,367.60 L556.00,366.46 L556.79,359.46 L557.54,349.56 L558.32,339.58 L559.07,330.28 L559.85,321.45 L560.60,321.45 L561.38,313.51 L562.13,306.72 L562.91,300.67 L563.66,295.44 L564.44,291.62 L565.19,289.01 L565.97,287.57 L566.73,287.09 L567.50,287.17" class="walk"/>
    <text x="565" y="293" class="axis" text-anchor="end" >shading: μ ± σ</text>
  
      <path d="M610,145 H674" stroke="#26796F" stroke-width="2.5" marker-end="url(#arrow)"/>
      <rect x="700" y="65" width="465" height="160" rx="17" class="card"/>
      <rect x="700" y="65" width="7" height="160" rx="3.5" fill="#26796F"/>
      <text x="725" y="98" class="kicker" text-anchor="start" >STANDING TARGET</text>
      <text x="725" y="130" class="section" text-anchor="start" >population variance</text>
      <text x="725" y="178" class="value" text-anchor="start" >0.0094445</text>
      <text x="1140" y="175" class="small" text-anchor="end" >(device-reported units)²</text>
      <text x="725" y="205" class="small" text-anchor="start" >one deterministic scalar from the complete window</text>
  
      <path d="M610,335 H674" stroke="#A63D32" stroke-width="2.5" marker-end="url(#arrow)"/>
      <rect x="700" y="255" width="465" height="160" rx="17" class="card"/>
      <rect x="700" y="255" width="7" height="160" rx="3.5" fill="#A63D32"/>
      <text x="725" y="288" class="kicker" text-anchor="start" >WALKING TARGET</text>
      <text x="725" y="320" class="section" text-anchor="start" >population variance</text>
      <text x="725" y="368" class="value" text-anchor="start" >9.2145266</text>
      <text x="1140" y="365" class="small" text-anchor="end" >(device-reported units)²</text>
      <text x="725" y="395" class="small" text-anchor="start" >one deterministic scalar from the complete window</text>
  <rect x="35" y="445" width="1130" height="38" rx="4" fill="#FFFDF9"/>
  <rect x="35" y="445" width="5" height="38" fill="#A63D32"/>
  <text x="56" y="470" class="body" text-anchor="start" >SAME EXTRACTION · walking variance is ≈ 976× the standing variance</text>
  </svg>